<?xml version="1.0" encoding="utf-8"?>
<!-- Generator: Adobe Illustrator 23.0.3, SVG Export Plug-In . SVG Version: 6.00 Build 0)  -->
<svg version="1.1" id="Layer_1" xmlns="http://www.w3.org/2000/svg" xmlns:xlink="http://www.w3.org/1999/xlink" x="0px" y="0px"
	 viewBox="0 0 150 150" style="enable-background:new 0 0 150 150;" xml:space="preserve">
<style type="text/css">
	.st0{fill:none;stroke:#000000;stroke-width:5;stroke-miterlimit:10;}
	.st1{fill:none;stroke:#000000;stroke-width:5;stroke-linecap:round;stroke-miterlimit:10;}
	.st2{fill:none;stroke:#000000;stroke-width:5;stroke-linejoin:round;stroke-miterlimit:10;}
	.st3{fill:none;stroke:#000000;stroke-width:5;stroke-linecap:round;stroke-linejoin:round;stroke-miterlimit:10;}
</style>
<g>
	<g>
		<g>
			<path d="M115.3,115.6c-7.5,0-13.6-6.1-13.6-13.6s6.1-13.6,13.6-13.6s13.6,6.1,13.6,13.6S122.8,115.6,115.3,115.6z M115.3,93.4
				c-4.7,0-8.6,3.8-8.6,8.6s3.8,8.6,8.6,8.6c4.7,0,8.6-3.8,8.6-8.6S120,93.4,115.3,93.4z"/>
			<path d="M115.3,108.7c-3.7,0-6.7-3-6.7-6.7s3-6.7,6.7-6.7c1.4,0,2.5,1.1,2.5,2.5s-1.1,2.5-2.5,2.5c-1,0-1.7,0.8-1.7,1.7
				s0.8,1.7,1.7,1.7s1.7-0.8,1.7-1.7c0-1.4,1.1-2.5,2.5-2.5s2.5,1.1,2.5,2.5C122,105.7,119,108.7,115.3,108.7z"/>
		</g>
		<g>
			<path d="M33.7,115.6c-7.5,0-13.6-6.1-13.6-13.6s6.1-13.6,13.6-13.6s13.6,6.1,13.6,13.6S41.2,115.6,33.7,115.6z M33.7,93.4
				c-4.7,0-8.6,3.8-8.6,8.6s3.8,8.6,8.6,8.6c4.7,0,8.6-3.8,8.6-8.6S38.5,93.4,33.7,93.4z"/>
			<path d="M33.7,108.7c-3.7,0-6.7-3-6.7-6.7s3-6.7,6.7-6.7c1.4,0,2.5,1.1,2.5,2.5s-1.1,2.5-2.5,2.5c-1,0-1.7,0.8-1.7,1.7
				s0.8,1.7,1.7,1.7c1,0,1.7-0.8,1.7-1.7c0-1.4,1.1-2.5,2.5-2.5s2.5,1.1,2.5,2.5C40.5,105.7,37.4,108.7,33.7,108.7z"/>
		</g>
	</g>
	<rect x="44.2" y="101.9" width="60.1" height="5"/>
	<path d="M131.4,106.9h-3.8v-5h3.8c1.3,0,2.3-1,2.3-2.3V53.4c0-1.9-1.6-3.5-3.5-3.5H19.1c-2.7,0-4.9,2.2-4.9,4.9v36.5
		c0,4,2.2,7.6,5.7,9.4c1.6,0.8,2.3,1.2,3.8,1.2v5c-2.8,0-4.3-0.8-6.1-1.7c-5.2-2.7-8.4-8-8.4-13.8V54.8c0-5.5,4.4-9.9,9.9-9.9h111.1
		c4.7,0,8.5,3.8,8.5,8.5v46.1C138.7,103.6,135.4,106.9,131.4,106.9z"/>
	<path d="M107,83.1H28.8c-4.8,0-8.7-3.9-8.7-8.7V57.6c0-2.3,1.9-4.2,4.2-4.2h87.5c1.8,0,3.3,1.5,3.3,3.3v18.2
		C115.1,79.4,111.5,83.1,107,83.1z M25.2,58.4v16c0,2,1.6,3.7,3.7,3.7H107c1.7,0,3.1-1.4,3.1-3.1V58.4H25.2z"/>
	<path d="M138,83.1h-12.3c-4.8,0-8.7-3.9-8.7-8.7V57.6c0-2.3,1.9-4.2,4.2-4.2H138V83.1z M122,58.4v16c0,2,1.6,3.7,3.7,3.7h7.3V58.4
		H122z"/>
	<rect x="55.8" y="55.9" width="5" height="48.5"/>
	<rect x="86.1" y="55.9" width="5" height="48.5"/>
</g>
</svg>
